<svg version="1.0" xmlns="http://www.w3.org/2000/svg" width="1333.333" height="1333.333" viewBox="0 0 1000 1000"><path d="M0 500v500h1000V0H0v500zM523.5 96.5c7.2.3 18 1.3 24 2.1 6.1.8 20.7 1.9 32.5 2.4 19.8.8 22.2 1.1 30.5 3.8 11.2 3.6 24.5 9.1 24.5 10.2 0 .4-2.1 1.4-4.7 2.1-5.6 1.6-9.4 1.6-84.3.1-62-1.3-62.6-1.2-87.5 6.4-6 1.8-16.2 4.9-22.5 6.8-6.3 1.9-14.9 4.6-18.9 6.1-4.1 1.4-10.7 3-14.5 3.6-13.7 2.2-27.2 8.5-44.8 20.9-12 8.5-17 13.6-21.5 22.2-5.2 9.9-8.7 12.3-24.7 17.1l-7.9 2.3 4.4 3.4c5.2 3.9 7.8 7 7.9 8.8 0 3.1-3.3 8.1-6.5 9.6-4.2 2-12.4 2.1-15.2.1-1.5-1.1-2.2-2.8-2.5-7-.3-3-.8-5.8-1.1-6.1-1.2-1.2-4 2.1-6.5 7.6-3.9 9-26.8 33.9-56.6 61.8-11 10.3-21.3 20-22.8 21.7-4.3 4.5-7.5 10.5-11.3 21-1.9 5.1-6.8 16.5-10.9 25.2-8 17-8.7 19-11.6 33.1-1.1 5.1-4 15.8-6.4 23.7-7.8 25-8.7 32.5-6 53.1.5 3.7-.1 8.9-2.2 19-2.5 12.5-2.8 16-2.8 34.4-.1 14.6.5 24.3 1.7 33.5 4 28.6 15.3 79.4 22.1 99.2 4.1 11.7 15 37.9 21.5 51.5 10.2 21.1 21.5 39.7 33.5 54.8 16.1 20.2 49.7 54.7 68.4 70.3 28.4 23.6 65.2 42.1 110.9 55.8 7.5 2.2 14.9 4.9 16.3 5.9 7.6 5.4 15.8 7 50 10 12.9 1.1 25.5 2.2 28 2.5 2.5.3 14.7 1 27 1.5 27.1 1.2 58-.1 72-2.9 11.2-2.3 29.8-8.7 42.6-14.6 5.6-2.6 13.3-5.1 19.5-6.5 15.4-3.3 32.4-10.3 46.9-19.3 20.9-13.1 71.5-53.1 84-66.4 8.2-8.8 16.9-20 26.8-34.3 5.4-7.9 9.9-11.5 13.2-10.5 2.9.9 8 7.3 8 10.1 0 2.9-11.2 22.3-19.8 34.4-6.9 9.6-17.2 20.4-26 27.3-3.6 2.9-9.5 9.1-13.6 14.6-12.6 16.6-34.7 36.2-51.7 45.9-5 2.9-17.8 8.6-28.4 12.7-44.8 17.3-65.6 22.7-102 26.5-11 1.1-28.1 3-38 4.2-23.7 2.9-59.2 3.1-77 .5-91-13.4-115.8-20.9-169-51-23.4-13.2-28.9-17-39.8-27-13.6-12.7-18.5-15.6-17.2-10.4.4 1.4.1 2.8-.8 3.5-3.2 2.7-33.6-24.1-48.9-43.2-13.5-16.8-24-33.4-40.9-64.1-34.5-63.2-53.3-115.2-61-169-2.6-18.2-3.6-53.8-2-70.1C112 467 118 421 120.1 409c4-22.3 22.6-100.6 25.8-108.8 1.2-3 4.6-10.2 7.6-16 5.2-10 5.7-11.5 7.1-22.6 2.9-22.4 7.4-40.3 13.2-52.5 2.2-4.5 6.5-9.3 21.7-24.1 23.4-22.8 26.5-24.7 56.4-34.1 8.9-2.8 13.4-4.7 15.5-6.8 4.5-4.2 6.1-4.7 16.6-6.1 5.2-.7 14.5-2.1 20.5-3.1 6.1-1.1 16.2-2.2 22.5-2.5 7.9-.5 12.9-1.2 15.9-2.5 2.4-1 9.7-2.8 16.3-3.9 6.5-1.1 14.9-3 18.5-4.3 5.6-1.9 7.2-2.9 9.8-6.6 2.7-3.9 4-4.7 11.4-7.2 10-3.4 18.3-4.6 40.6-5.9 9.4-.5 22-1.9 28-3.1 10.2-1.9 34.7-3.9 40.5-3.3 1.4.2 8.4.6 15.5.9zm-300.4 16.4c4.9 5 3.9 10.8-3.9 21.4l-3.5 4.8-3.7-3.6c-7.9-7.7-8.8-15.4-2.6-22 4.4-4.7 9.4-4.9 13.7-.6zM178 129.8c5.6 3 8.3 8.9 8.3 18.2.1 13.1-5.5 21.7-15.7 24-5.5 1.2-12.5-.1-16.7-3-3.7-2.7-6.9-9.6-6.9-15.1 0-17.5 17.6-31.2 31-24.1zm-65.8 7.9c4.8 2.3 6.1 5.4 5.6 13.3-.3 6-.8 7.4-3.1 9.8-2.5 2.5-3.4 2.7-10.6 2.7-7 0-8.2-.3-10.5-2.4-4.9-4.7-4.6-13.7.7-19.8 5.4-6.1 10.8-7.2 17.9-3.6zm614.6 6.7c12.5 6.3 29.4 18.1 46.2 32.1 4.7 3.9 16.6 13.4 26.5 21.1 27.6 21.4 44.1 38.1 64.9 65.9 37 49.4 46.7 69.8 56 118 4.6 24.1 5.6 34.9 5.6 63.4 0 28.6-.7 35.2-5.6 54.6-3 12.2-9.3 31.3-10.4 32-2 1.2-2.3-24.1-.7-57 1.9-39.1 1.3-55.6-2.9-80.5-3.5-21.1-9.5-44.2-14.6-56.3-2.2-5.1-3.3-5.8-4.3-2.7-.3 1.1-.9 2-1.3 2s-2.2-4.8-4.1-10.8c-9.4-29.4-31.6-60.9-68.7-97.4-15-14.7-24.9-23.2-49.4-42.2-26.4-20.6-29-22.5-40.5-29.1-5.5-3.1-10.5-6.4-11.2-7.4-2.9-3.8-.1-9.1 4.9-9.1 1.6 0 5.9 1.5 9.6 3.4zM92.5 206.5c12.6 3.3 24.3 12.8 29.6 23.9 5.1 10.8 3.6 16.2-7.3 26.3-13.1 11.9-22.7 17-30.4 15.9-8.2-1.1-20-9-25.7-17.3-8.8-12.7-2.4-36.5 12.4-45.9 7.1-4.5 12.5-5.2 21.4-2.9zm321.4 100.7c.4 1.3 1.3 51.6 2 111.8 1.2 115.8 2.2 185.2 2.7 184.7.3-.2 4-17.3 16.9-76.2 3-13.8 8.9-40.5 13-59.5s10-45.8 13-59.5c3-13.8 8.8-40.4 13-59.3 4.1-18.8 7.5-34.9 7.5-35.6 0-.8 1.1-2.7 2.3-4.2 2.3-2.7 2.7-2.8 17.3-3.5 8.2-.4 20.2-.8 26.6-.8 10.2-.1 11.8.1 12.7 1.7.5 1 1.4 52.4 2.1 126.7.7 68.8 1.5 134.1 1.8 145.3l.7 20.3 4.7-21.8c2.6-12 7.7-35.5 11.3-52.3 13.3-61.1 20.4-93.9 39.4-182 6.1-28.3 7.3-32.8 9.4-34.6 2.2-1.9 4.2-2.1 19.8-2.7 28.2-1.1 34.5-.9 36 .9 1.4 1.7 1.7.7-14.1 59.9-4.4 16.5-10.7 40.1-14 52.5-3.3 12.4-9.2 34.4-13.1 49-3.8 14.6-9.9 37.3-13.4 50.5-8.1 30.6-17.6 66.3-26 97.5-3.6 13.5-9.4 35.7-13 49.3-7.2 27.3-8.9 32.3-11.4 33.7-1 .5-15.6 1.4-32.6 2.1-28.4 1.1-30.9 1-32-.5-1.9-2.5-2.4-25.9-3-132.1-.3-53.4-.8-99-1.2-101.5-.7-5.1-.7-4.8-11.8 49-3 14.6-9.3 44.9-14 67.5-4.7 22.5-10.8 51.8-13.5 65-8.3 40.6-10 47.9-11.8 49.8-1.6 1.5-5.1 1.8-28.2 2.7-40.7 1.5-39.7 1.5-41.3-1.8-1.6-3-1.4-.2-8.7-134.2-2.8-50.3-5.9-106.6-7-125-4.4-74.5-7.1-127.5-6.6-129.6.3-1.2 1.4-2.5 2.3-3 2.1-.9 23-1.9 45.6-2.2 15.5-.2 15.8-.2 16.6 2zm-191.3 15.6c.6.4 2.5 3 4.3 5.8 2.8 4.6 3.1 6 3.1 12.8 0 5.7-.5 8.7-2 11.5-2.1 4.1-6.3 8.1-8.7 8.1-2.9 0-9.5-4.2-11.4-7.3-2.5-4.1-1.9-7.6 2.6-14.1 2.2-3.3 3.7-6.8 4.1-9.9.8-6 4.6-9.2 8-6.9z"/></svg>